<svg width="184" height="39" viewBox="0 0 184 39" fill="none" xmlns="http://www.w3.org/2000/svg">
<path d="M18.6309 17.0596H6.81836V25.0576H20.6816V30H0.666016V0.140625H20.6406V5.12402H6.81836V12.2402H18.6309V17.0596ZM36.7598 30C36.4863 29.4668 36.2881 28.8037 36.165 28.0107C34.7295 29.6104 32.8633 30.4102 30.5664 30.4102C28.3926 30.4102 26.5879 29.7812 25.1523 28.5234C23.7305 27.2656 23.0195 25.6797 23.0195 23.7656C23.0195 21.4141 23.8877 19.6094 25.624 18.3516C27.374 17.0938 29.8965 16.458 33.1914 16.4443H35.9189V15.1729C35.9189 14.1475 35.6523 13.3271 35.1191 12.7119C34.5996 12.0967 33.7725 11.7891 32.6377 11.7891C31.6396 11.7891 30.8535 12.0283 30.2793 12.5068C29.7188 12.9854 29.4385 13.6416 29.4385 14.4756H23.5117C23.5117 13.1904 23.9082 12.001 24.7012 10.9072C25.4941 9.81348 26.6152 8.95898 28.0645 8.34375C29.5137 7.71484 31.1406 7.40039 32.9453 7.40039C35.6797 7.40039 37.8467 8.09082 39.4463 9.47168C41.0596 10.8389 41.8662 12.7666 41.8662 15.2549V24.873C41.8799 26.9785 42.1738 28.5713 42.748 29.6514V30H36.7598ZM31.8584 25.8779C32.7334 25.8779 33.54 25.6865 34.2783 25.3037C35.0166 24.9072 35.5635 24.3809 35.9189 23.7246V19.9102H33.7041C30.7373 19.9102 29.1582 20.9355 28.9668 22.9863L28.9463 23.335C28.9463 24.0732 29.2061 24.6816 29.7256 25.1602C30.2451 25.6387 30.9561 25.8779 31.8584 25.8779ZM58.4365 23.8682C58.4365 23.1436 58.0742 22.5762 57.3496 22.166C56.6387 21.7422 55.4902 21.3662 53.9043 21.0381C48.627 19.9307 45.9883 17.6885 45.9883 14.3115C45.9883 12.3428 46.8018 10.7021 48.4287 9.38965C50.0693 8.06348 52.209 7.40039 54.8477 7.40039C57.6641 7.40039 59.9131 8.06348 61.5947 9.38965C63.29 10.7158 64.1377 12.4385 64.1377 14.5576H58.2109C58.2109 13.71 57.9375 13.0127 57.3906 12.4658C56.8438 11.9053 55.9893 11.625 54.8271 11.625C53.8291 11.625 53.0566 11.8506 52.5098 12.3018C51.9629 12.7529 51.6895 13.3271 51.6895 14.0244C51.6895 14.6807 51.9971 15.2139 52.6123 15.624C53.2412 16.0205 54.2939 16.3691 55.7705 16.6699C57.2471 16.957 58.4912 17.2852 59.5029 17.6543C62.6338 18.8027 64.1992 20.792 64.1992 23.6221C64.1992 25.6455 63.3311 27.2861 61.5947 28.5439C59.8584 29.7881 57.6162 30.4102 54.8682 30.4102C53.0088 30.4102 51.3545 30.082 49.9053 29.4258C48.4697 28.7559 47.3418 27.8467 46.5215 26.6982C45.7012 25.5361 45.291 24.2852 45.291 22.9453H50.9102C50.9648 23.998 51.3545 24.8047 52.0791 25.3652C52.8037 25.9258 53.7744 26.2061 54.9912 26.2061C56.126 26.2061 56.9805 25.9941 57.5547 25.5703C58.1426 25.1328 58.4365 24.5654 58.4365 23.8682ZM76.3193 21.6123L80.4209 7.81055H86.7783L77.8574 33.4453L77.3652 34.6143C76.0391 37.5127 73.8516 38.9619 70.8027 38.9619C69.9414 38.9619 69.0664 38.832 68.1777 38.5723V34.0811L69.0801 34.1016C70.2012 34.1016 71.0352 33.9307 71.582 33.5889C72.1426 33.2471 72.5801 32.6797 72.8945 31.8867L73.5918 30.0615L65.8193 7.81055H72.1973L76.3193 21.6123Z" fill="#53886F"/>
<path d="M110.937 3.38086H101.339V30H97.4219V3.38086H87.8447V0.140625H110.937V3.38086ZM111.716 18.7002C111.716 16.5264 112.14 14.5713 112.987 12.835C113.849 11.0986 115.038 9.75879 116.556 8.81543C118.087 7.87207 119.83 7.40039 121.785 7.40039C124.807 7.40039 127.247 8.44629 129.106 10.5381C130.979 12.6299 131.916 15.4121 131.916 18.8848V19.1514C131.916 21.3115 131.499 23.2529 130.665 24.9756C129.845 26.6846 128.662 28.0176 127.117 28.9746C125.586 29.9316 123.822 30.4102 121.826 30.4102C118.818 30.4102 116.378 29.3643 114.505 27.2725C112.646 25.1807 111.716 22.4121 111.716 18.9668V18.7002ZM115.53 19.1514C115.53 21.6123 116.098 23.5879 117.232 25.0781C118.381 26.5684 119.912 27.3135 121.826 27.3135C123.754 27.3135 125.285 26.5615 126.42 25.0576C127.555 23.54 128.122 21.4209 128.122 18.7002C128.122 16.2666 127.541 14.2979 126.379 12.7939C125.23 11.2764 123.699 10.5176 121.785 10.5176C119.912 10.5176 118.401 11.2627 117.253 12.7529C116.104 14.2432 115.53 16.376 115.53 19.1514ZM137.269 30V0.140625H145.697C148.295 0.140625 150.592 0.714844 152.588 1.86328C154.584 3.01172 156.122 4.64551 157.202 6.76465C158.296 8.88379 158.85 11.3174 158.863 14.0654V15.9727C158.863 18.7891 158.316 21.2568 157.223 23.376C156.143 25.4951 154.591 27.1221 152.567 28.2568C150.558 29.3916 148.213 29.9727 145.533 30H137.269ZM141.206 3.38086V26.7803H145.349C148.384 26.7803 150.742 25.8369 152.424 23.9502C154.119 22.0635 154.967 19.377 154.967 15.8906V14.1475C154.967 10.7568 154.167 8.125 152.567 6.25195C150.981 4.36523 148.726 3.4082 145.8 3.38086H141.206ZM163.231 18.7002C163.231 16.5264 163.655 14.5713 164.503 12.835C165.364 11.0986 166.554 9.75879 168.071 8.81543C169.603 7.87207 171.346 7.40039 173.301 7.40039C176.322 7.40039 178.763 8.44629 180.622 10.5381C182.495 12.6299 183.432 15.4121 183.432 18.8848V19.1514C183.432 21.3115 183.015 23.2529 182.181 24.9756C181.36 26.6846 180.178 28.0176 178.633 28.9746C177.102 29.9316 175.338 30.4102 173.342 30.4102C170.334 30.4102 167.894 29.3643 166.021 27.2725C164.161 25.1807 163.231 22.4121 163.231 18.9668V18.7002ZM167.046 19.1514C167.046 21.6123 167.613 23.5879 168.748 25.0781C169.896 26.5684 171.428 27.3135 173.342 27.3135C175.27 27.3135 176.801 26.5615 177.936 25.0576C179.07 23.54 179.638 21.4209 179.638 18.7002C179.638 16.2666 179.057 14.2979 177.895 12.7939C176.746 11.2764 175.215 10.5176 173.301 10.5176C171.428 10.5176 169.917 11.2627 168.769 12.7529C167.62 14.2432 167.046 16.376 167.046 19.1514Z" fill="#444444"/>
</svg>
